<?xml version="1.0" standalone="no"?>
<!DOCTYPE svg PUBLIC "-//W3C//DTD SVG 20010904//EN"
 "http://www.w3.org/TR/2001/REC-SVG-20010904/DTD/svg10.dtd">
<svg version="1.0" xmlns="http://www.w3.org/2000/svg"
 width="512.000000pt" height="512.000000pt" viewBox="0 0 512.000000 512.000000"
 preserveAspectRatio="xMidYMid meet">
<metadata>
Created by potrace 1.14, written by Peter Selinger 2001-2017
</metadata>
<g transform="translate(0.000000,512.000000) scale(0.100000,-0.100000)"
fill="#000000" stroke="none">
<path d="M3346 5099 c-544 -70 -1045 -310 -1423 -680 l-72 -71 -102 26 c-129
33 -202 41 -359 41 -242 0 -399 -35 -605 -135 -155 -74 -277 -162 -407 -294
-114 -114 -136 -163 -112 -245 14 -50 73 -107 119 -117 97 -20 346 -129 455
-199 121 -78 265 -207 256 -230 -2 -5 -25 -64 -51 -130 -26 -66 -53 -133 -60
-150 -40 -93 -106 -324 -112 -398 -8 -78 -3 -177 11 -242 7 -29 3 -33 -73 -83
-201 -135 -407 -354 -538 -572 -113 -188 -213 -449 -239 -620 -3 -19 -7 -41
-9 -47 -25 -75 -26 -487 -2 -580 24 -93 63 -160 126 -223 66 -65 133 -103 222
-126 97 -26 448 -25 579 1 13 2 42 7 64 11 22 3 44 8 48 11 5 2 21 6 36 9 67
11 257 81 367 134 108 53 287 161 320 193 7 6 29 26 50 42 121 95 273 261 365
398 l45 67 40 -7 c22 -4 96 -7 165 -7 117 -1 132 2 245 37 127 40 413 145 430
157 6 4 26 12 44 19 34 11 36 10 84 -36 60 -58 154 -182 206 -272 46 -79 123
-257 147 -338 37 -128 90 -183 178 -183 66 0 100 19 187 103 233 225 376 491
428 792 32 189 20 438 -30 620 -20 72 -17 79 51 152 124 129 275 327 354 463
34 59 136 263 160 320 32 79 95 273 111 345 39 176 44 206 62 375 10 85 10
442 1 550 -7 81 -24 212 -33 262 -3 13 -9 48 -15 78 -6 30 -13 66 -15 80 -3
14 -12 58 -20 99 -22 106 -57 200 -100 265 -50 75 -146 161 -221 197 -78 37
-334 98 -514 123 -19 3 -54 7 -77 11 -200 29 -563 31 -767 4z"/>
</g>
</svg>
